# Blender v2.71 (sub 0) OBJ File: 'bug.blend'
# www.blender.org
mtllib bugAnim_000002.mtl
o Cube
v -0.125258 0.032167 0.015585
v -0.103700 0.053831 0.015585
v -0.075320 0.074626 0.015585
v -0.042597 0.079244 0.016030
v -0.016362 0.062416 0.021593
v 0.120737 0.016378 0.015585
v 0.039076 -0.009238 0.015585
v -0.027500 -0.021711 0.015585
v -0.059169 -0.010598 0.015585
v 0.005781 0.061555 0.017763
v -0.036241 0.052733 0.031315
v -0.008195 0.038875 0.029695
v 0.058450 0.023262 0.028111
v 0.040732 0.013124 0.028111
v -0.027489 0.001181 0.028111
v -0.045849 0.007623 0.028111
v -0.065537 0.015056 0.028111
v -0.084163 0.032416 0.028111
v -0.046111 0.018510 0.032328
v -0.039172 0.022882 0.034923
v -0.024757 0.021760 0.034257
v 0.001053 0.025439 0.034591
v 0.008765 0.021528 0.034101
v -0.027480 0.019441 0.038377
v -0.035223 0.022158 0.038377
v -0.052793 0.026100 0.038377
v -0.064095 0.025804 0.038377
v -0.125258 0.032167 -0.015585
v -0.075320 0.073825 -0.016570
v -0.042597 0.078138 -0.019281
v 0.005781 0.061627 -0.017715
v 0.042364 0.057807 -0.015954
v 0.089197 0.059187 -0.015585
v 0.118323 0.041079 -0.015585
v 0.090175 -0.001111 -0.015585
v 0.039076 -0.009255 -0.015207
v -0.027500 -0.021635 -0.011246
v -0.059169 -0.010616 -0.015066
v -0.084163 0.032416 -0.028111
v -0.036241 0.054187 -0.030728
v -0.021032 0.040394 -0.031056
v 0.057050 0.037583 -0.028111
v 0.011108 0.007044 -0.025429
v -0.027489 -0.000287 -0.024309
v -0.087508 0.016970 -0.028111
v -0.046111 0.030433 -0.036045
v -0.031171 0.029456 -0.036397
v 0.001053 0.027461 -0.035146
v 0.008174 0.026635 -0.035090
v 0.001292 0.018118 -0.033692
v -0.011202 0.013468 -0.031093
v -0.027480 0.013633 -0.033031
v -0.052793 0.023096 -0.036332
v -0.010398 0.022817 -0.033833
v -0.053886 -0.015197 0.096527
v 0.023933 -0.015860 0.095613
v -0.053886 -0.036004 0.131587
v 0.023933 -0.038309 0.130219
v -0.030075 -0.060918 0.173564
v -0.020292 -0.061972 0.172939
v -0.004130 -0.063223 0.172196
v -0.024757 0.019656 0.033009
v -0.019343 0.018603 0.032383
v -0.010398 0.018049 0.031886
v -0.053886 -0.017300 0.095278
v -0.024544 -0.018354 0.094653
v 0.023933 -0.018196 0.094334
v -0.053886 -0.038108 0.130339
v -0.024544 -0.039162 0.129713
v 0.023933 -0.040413 0.128971
v -0.030075 -0.063021 0.172316
v -0.020292 -0.064075 0.171690
v -0.004130 -0.065326 0.170948
v -0.154170 0.013716 -0.015585
v -0.103700 0.053831 -0.015585
v -0.016362 0.062608 -0.021564
v 0.120737 0.016378 -0.015585
v -0.093130 0.002223 -0.015585
v -0.131028 0.005525 -0.015585
v -0.100924 0.021719 -0.028111
v -0.071665 0.043943 -0.028042
v -0.055212 0.054290 -0.028948
v -0.008195 0.039210 -0.029651
v 0.013014 0.042751 -0.028212
v 0.040165 0.046518 -0.028169
v 0.058450 0.023262 -0.028111
v 0.040732 0.012554 -0.027191
v -0.045849 0.006581 -0.026002
v -0.065537 0.014431 -0.027182
v -0.058451 0.025836 -0.036987
v -0.039172 0.032066 -0.036500
v -0.024757 0.022966 -0.034507
v -0.019343 0.020706 -0.033632
v 0.008765 0.022366 -0.034597
v -0.035223 0.017200 -0.034315
v -0.043527 0.021196 -0.035476
v -0.064095 0.023853 -0.037030
v -0.051382 0.027419 -0.035940
v -0.172413 0.011106 -0.000482
v -0.114676 0.056865 0.000000
v -0.082210 0.080589 -0.000239
v -0.044775 0.086652 -0.002092
v -0.014762 0.071510 -0.000158
v 0.052420 0.062007 0.000000
v 0.105996 0.062993 0.000000
v 0.139317 0.042277 0.000000
v 0.142079 0.014019 -0.000000
v 0.107115 -0.005988 -0.000000
v 0.048659 -0.015286 -0.000000
v -0.027504 -0.029477 0.000282
v -0.063733 -0.016841 0.000000
v -0.102584 -0.002174 0.000000
v -0.145939 0.001603 0.000000
v -0.139338 0.032082 0.000000
v 0.010569 0.068032 0.000022
v -0.154170 0.013565 0.015063
v 0.042364 0.057596 0.016104
v 0.089197 0.059187 0.015585
v 0.118323 0.041079 0.015585
v 0.090175 -0.001111 0.015585
v -0.093130 0.002223 0.015585
v -0.131028 0.005525 0.015585
v -0.100924 0.021719 0.028111
v -0.071665 0.044975 0.028111
v -0.055212 0.057031 0.028111
v -0.021032 0.039095 0.031338
v 0.040165 0.046311 0.028176
v 0.057050 0.037583 0.028111
v 0.011108 0.008412 0.028111
v -0.087508 0.016970 0.028111
v 0.013014 0.041879 0.028230
v -0.058451 0.028103 0.038377
v -0.031171 0.024202 0.035706
v -0.019343 0.020706 0.033632
v 0.008174 0.024984 0.034425
v 0.001292 0.017928 0.033552
v -0.011202 0.014307 0.031770
v -0.043527 0.025293 0.038377
v -0.051382 0.032615 0.038377
v -0.010398 0.021809 0.033550
v -0.053886 -0.015197 -0.096527
v 0.023933 -0.017502 -0.095159
v -0.053886 -0.036004 -0.131587
v 0.023933 -0.038309 -0.130219
v -0.030075 -0.060918 -0.173564
v -0.020292 -0.061972 -0.172939
v -0.004130 -0.063223 -0.172196
v -0.024757 0.019656 -0.033009
v -0.019343 0.018603 -0.032383
v -0.010398 0.018773 -0.032139
v -0.053886 -0.017300 -0.095278
v -0.024544 -0.018354 -0.094653
v 0.023933 -0.019605 -0.093910
v -0.053886 -0.038108 -0.130339
v -0.024544 -0.039162 -0.129713
v 0.023933 -0.040413 -0.128971
v -0.030075 -0.063021 -0.172316
v -0.020292 -0.064075 -0.171690
v -0.004130 -0.065326 -0.170948
vn 0.131400 0.990400 -0.041200
vn 0.148400 0.778900 0.609300
vn 0.185200 0.627200 0.756500
vn -0.663600 0.748100 -0.000100
vn -0.435600 0.510900 0.741100
vn -0.267000 0.679200 0.683600
vn -0.059700 -0.996900 -0.050200
vn -0.057400 -0.738700 0.671500
vn -0.251900 -0.690800 0.677700
vn -0.411200 0.911500 -0.008600
vn 0.162200 -0.986700 -0.006300
vn 0.124200 -0.716900 0.685900
vn -0.038900 -0.483900 0.874200
vn -0.172900 -0.474800 0.862900
vn 0.162600 0.087800 0.982800
vn -0.102500 0.304100 0.947100
vn -0.215000 -0.681700 -0.699300
vn -0.031100 -0.713600 -0.699800
vn 0.105400 -0.704300 -0.702000
vn 0.192200 -0.631500 -0.751200
vn 0.396200 -0.918100 -0.000100
vn 0.371900 0.928300 0.000100
vn 0.139300 0.734100 -0.664600
vn 0.036400 0.821800 -0.568600
vn 0.119200 0.728300 -0.674800
vn -0.280200 0.651200 -0.705200
vn 0.891000 0.453900 0.000000
vn 0.406700 0.325400 -0.853600
vn -0.027600 -0.522600 -0.852100
vn 0.059000 -0.503300 -0.862100
vn 0.025400 -0.385100 -0.922500
vn 0.055100 -0.380400 -0.923200
vn 0.134200 0.990900 0.002300
vn 0.302000 0.953200 0.007900
vn -0.593600 0.804800 0.004200
vn -0.428700 0.520900 0.738200
vn 0.030200 0.999500 0.004800
vn 0.122600 0.730100 -0.672200
vn 0.718900 -0.670400 -0.183500
vn 0.730600 -0.483900 -0.481600
vn 0.736700 0.646600 0.197800
vn -0.725900 0.652000 0.219000
vn -0.745500 -0.488400 -0.453400
vn -0.745800 -0.640200 -0.184200
vn -0.378600 0.226300 0.897500
vn -0.460200 -0.830500 0.313800
vn -0.054500 -0.967700 0.246100
vn 0.054100 0.242000 0.968700
vn 0.365100 -0.897700 0.246500
vn 0.745000 0.439000 0.502200
vn -0.722300 0.486500 0.491600
vn -0.021600 -0.859300 -0.510900
vn -0.100800 -0.266700 -0.958500
vn -0.032000 -0.858300 -0.512100
vn -0.370400 0.907400 -0.198600
vn -0.510500 -0.087000 -0.855400
vn 0.425900 0.133600 0.894900
vn -0.265400 -0.964100 0.006900
vn -0.148500 -0.742200 -0.653500
vn -0.157600 -0.755300 -0.636100
vn -0.097500 -0.602200 -0.792400
vn -0.049400 -0.325400 -0.944200
vn -0.031300 -0.365300 -0.930300
vn -0.180600 -0.983500 -0.000400
vn -0.163900 -0.759200 0.629900
vn 0.038000 0.810700 0.584200
vn 0.137100 0.735300 0.663700
vn 0.406600 0.325400 0.853700
vn -0.029000 0.622200 0.782300
vn -0.040700 0.494500 0.868200
vn -0.992800 -0.119200 -0.008200
vn -0.154900 -0.733200 0.662100
vn -0.554000 -0.054300 0.830700
vn -0.110800 -0.571900 0.812700
vn -0.242300 0.002000 0.970200
vn 0.742700 0.451700 -0.494300
vn 0.744100 0.639700 -0.192600
vn 0.721400 -0.494100 0.485100
vn -0.745800 -0.640200 0.184200
vn -0.745500 -0.488900 0.453000
vn -0.719700 0.656900 -0.224500
vn -0.054500 -0.967700 -0.246100
vn -0.460200 -0.830500 -0.313800
vn -0.378600 0.226300 -0.897500
vn 0.054100 0.242000 -0.968700
vn 0.425800 0.133600 -0.894900
vn 0.365100 -0.897700 -0.246500
vn 0.721000 -0.671700 0.170200
vn -0.080200 -0.282100 0.956000
vn -0.036000 -0.858700 0.511200
vn -0.036000 -0.860200 0.508700
vn -0.516000 -0.137300 0.845500
vn -0.293900 0.936700 0.190200
vn -0.720200 0.491300 -0.489800
vn -0.117500 -0.559600 0.820400
vn 0.154800 0.376100 0.913500
vn 0.149500 0.246700 0.957500
vn 0.197500 -0.636200 0.745800
vn 0.919600 -0.392900 0.000000
vn -0.342200 -0.939600 -0.007000
vn 0.412500 -0.287400 0.864400
vn 0.085100 0.298700 0.950500
vn 0.247200 0.487800 0.837200
vn -0.191100 0.217800 0.957100
vn -0.105200 0.375700 0.920700
vn 0.101800 -0.346700 0.932400
vn 0.078700 -0.420900 0.903700
vn 0.157800 0.160800 0.974300
vn 0.159100 -0.121100 0.979800
vn -0.081900 0.817200 0.570500
vn 0.148700 0.438600 0.886300
vn 0.242800 0.648400 0.721500
vn 0.094600 -0.221700 0.970500
vn 0.013600 -0.353300 0.935400
vn -0.155100 0.339800 0.927600
vn -0.360500 0.754100 0.548900
vn -0.104700 0.929300 0.354200
vn 0.063300 0.098500 0.993100
vn -0.037000 0.043700 0.998400
vn -0.106800 -0.581300 -0.806700
vn 0.153500 0.258800 -0.953600
vn 0.148700 0.376300 -0.914500
vn 0.226500 0.626100 -0.746100
vn -0.434800 0.507600 -0.743800
vn 0.411500 -0.287700 -0.864800
vn 0.088000 0.299400 -0.950000
vn 0.122900 0.156500 -0.980000
vn 0.153500 -0.033100 -0.987600
vn -0.140300 0.337000 -0.931000
vn -0.225300 0.266300 -0.937200
vn -0.127300 -0.503300 -0.854600
vn -0.228100 0.297800 -0.926900
vn -0.225800 0.002400 -0.974200
vn -0.544200 -0.044200 -0.837800
vn 0.090900 -0.410800 -0.907100
vn 0.161100 -0.150000 -0.975400
vn 0.163400 0.161300 -0.973300
vn -0.425400 0.532200 -0.732000
vn -0.010300 0.604300 -0.796700
vn 0.247200 0.108500 -0.962900
vn 0.017300 0.181800 -0.983200
vn 0.007800 -0.377900 -0.925800
vn 0.082200 -0.243600 -0.966400
vn 0.056900 0.113600 -0.991900
vn -0.250200 0.497700 -0.830400
vn 0.206300 -0.309200 0.928300
vn -0.173000 -0.087300 0.981000
vn 0.033200 -0.330100 -0.943300
vn -0.091800 0.130300 -0.987200
vn 0.119900 0.728400 0.674500
vn -0.239300 0.361800 0.901000
vn 0.344200 0.281500 0.895700
vn 0.539800 0.787100 0.298500
vn 0.096500 0.163700 0.981800
vn -0.134500 0.223900 0.965300
vn -0.053100 0.528800 -0.847000
vn 0.087100 -0.221700 -0.971200
vn -0.042100 0.180000 -0.982700
vn -0.083500 0.079600 -0.993300
vn -0.061100 0.517400 -0.853500
vn -0.149500 -0.099600 -0.983700
vn 0.390800 -0.257900 -0.883600
vn 0.381000 0.877600 -0.291000
vn -0.034100 0.510100 -0.859500
vn 0.048800 0.833800 0.549900
vn 0.339500 0.905400 0.254800
vn 0.415900 -0.217800 0.882900
vn -0.008600 0.510400 0.859900
vn 0.088200 0.794000 -0.601500
usemtl Material
s 1
f 102//1 4//2 5//3
f 100//4 2//5 3//6
f 110//7 8//8 9//9
f 101//10 3//6 4//2
f 109//11 7//12 8//8
f 8//8 15//13 16//14
f 15//13 24//15 25//16
f 38//17 37//18 110//7
f 36//19 35//20 108//21
f 105//22 33//23 32//24
f 30//25 29//26 101//10
f 37//18 36//19 109//11
f 106//27 34//28 33//23
f 44//29 43//30 36//19
f 52//31 51//32 43//30
f 115//33 103//34 5//3
f 114//35 1//36 2//5
f 104//37 32//24 31//38
f 70//39 67//40 56//41
f 55//42 65//43 68//44
f 59//45 71//46 72//47
f 60//48 72//47 73//49
f 73//49 70//39 58//50
f 57//51 68//44 71//46
f 67//40 66//52 63//53
f 63//53 66//52 65//43
f 67//40 70//39 69//54
f 66//52 69//54 68//44
f 70//39 73//49 72//47
f 68//44 69//54 72//47
f 21//55 62//56 65//43
f 60//48 61//57 58//50
f 56//41 55//42 57//51
f 113//58 79//59 78//60
f 89//61 96//62 95//63
f 113//58 112//64 121//65
f 105//22 104//37 117//66
f 106//27 105//22 118//67
f 119//68 118//67 127//69
f 118//67 117//66 131//70
f 79//59 113//58 99//71
f 122//72 116//73 99//71
f 130//74 123//75 116//73
f 144//76 142//77 153//78
f 154//79 151//80 141//81
f 158//82 157//83 145//84
f 146//85 147//86 159//87
f 144//76 156//88 159//87
f 145//84 157//83 154//79
f 149//89 152//90 153//78
f 151//80 152//90 149//89
f 153//78 152//90 155//91
f 154//79 155//91 152//90
f 156//88 155//91 158//82
f 154//79 157//83 158//82
f 151//80 148//92 92//93
f 92//93 148//92 149//89
f 147//86 146//85 144//76
f 144//76 143//94 141//81
f 122//72 121//65 17//95
f 4//2 11//96 126//97
f 108//21 120//98 7//12
f 107//99 106//27 119//68
f 112//64 111//100 9//9
f 107//99 6//101 120//98
f 12//102 126//97 21//103
f 2//5 124//104 125//105
f 120//98 14//106 129//107
f 6//101 119//68 128//108
f 3//6 125//105 11//96
f 121//65 9//9 16//14
f 7//12 129//107 15//13
f 6//101 13//109 14//106
f 125//105 20//110 133//111
f 17//95 16//14 25//16
f 129//107 137//112 24//15
f 13//109 23//113 136//114
f 128//108 127//69 22//115
f 11//96 133//111 21//103
f 130//74 17//95 138//116
f 124//104 19//117 20//110
f 14//106 136//114 137//112
f 128//108 135//118 23//113
f 127//69 131//70 140//119
f 79//59 45//120 89//61
f 41//121 40//122 30//25
f 76//123 30//25 102//1
f 29//26 75//124 100//4
f 107//99 77//125 34//28
f 112//64 78//60 38//17
f 35//20 77//125 107//99
f 83//126 93//127 92//128
f 82//129 81//130 75//124
f 88//131 44//29 37//18
f 39//132 80//133 74//134
f 43//30 87//135 35//20
f 77//125 86//136 42//137
f 31//38 83//126 41//121
f 40//122 82//129 29//26
f 78//60 89//61 88//131
f 81//130 39//132 28//138
f 87//135 86//136 77//125
f 34//28 42//137 85//139
f 47//140 91//141 82//129
f 50//142 94//143 86//136
f 42//137 49//144 48//145
f 26//146 27//147 130//74
f 92//128 47//140 40//122
f 45//120 53//148 96//62
f 91//141 46//149 81//130
f 95//63 52//31 44//29
f 51//32 50//142 87//135
f 86//136 94//143 49//144
f 99//71 116//73 1//36
f 104//37 115//33 10//150
f 116//73 123//75 18//151
f 10//150 5//3 126//97
f 1//36 18//151 124//104
f 117//66 10//150 12//102
f 24//15 134//152 21//103
f 18//151 139//153 19//117
f 131//70 12//102 134//154
f 123//75 132//155 139//153
f 28//138 74//134 99//71
f 115//33 31//38 76//123
f 75//124 28//138 114//35
f 33//23 85//139 84//156
f 32//24 84//156 83//126
f 93//157 52//31 92//128
f 46//149 98//158 39//132
f 84//156 54//159 93//127
f 98//158 90//160 80//133
f 85//139 48//145 54//159
f 45//120 79//59 74//134
f 80//133 90//160 97//161
f 67//40 64//162 140//163
f 140//163 64//162 63//53
f 21//55 134//164 63//53
f 140//163 134//165 56//41
f 54//166 150//167 153//78
f 54//166 93//168 149//89
f 93//169 54//166 142//77
f 103//34 102//1 5//3
f 101//10 100//4 3//6
f 111//100 110//7 9//9
f 102//1 101//10 4//2
f 110//7 109//11 8//8
f 9//9 8//8 16//14
f 16//14 15//13 25//16
f 111//100 38//17 110//7
f 109//11 36//19 108//21
f 104//37 105//22 32//24
f 102//1 30//25 101//10
f 110//7 37//18 109//11
f 105//22 106//27 33//23
f 37//18 44//29 36//19
f 44//29 52//31 43//30
f 10//150 115//33 5//3
f 100//4 114//35 2//5
f 115//33 104//37 31//38
f 58//50 70//39 56//41
f 57//51 55//42 68//44
f 60//48 59//45 72//47
f 61//57 60//48 73//49
f 61//57 73//49 58//50
f 59//45 57//51 71//46
f 64//162 67//40 63//53
f 62//56 63//53 65//43
f 66//52 67//40 69//54
f 65//43 66//52 68//44
f 69//54 70//39 72//47
f 71//46 68//44 72//47
f 55//42 21//55 65//43
f 57//51 59//45 60//48
f 58//50 56//41 57//51
f 60//48 58//50 57//51
f 112//64 113//58 78//60
f 88//131 89//61 95//63
f 122//72 113//58 121//65
f 118//67 105//22 117//66
f 119//68 106//27 118//67
f 128//108 119//68 127//69
f 127//69 118//67 131//70
f 74//134 79//59 99//71
f 113//58 122//72 99//71
f 122//72 130//74 116//73
f 156//88 144//76 153//78
f 143//94 154//79 141//81
f 146//85 158//82 145//84
f 158//82 146//85 159//87
f 147//86 144//76 159//87
f 143//94 145//84 154//79
f 150//167 149//89 153//78
f 148//92 151//80 149//89
f 156//88 153//78 155//91
f 151//80 154//79 152//90
f 159//87 156//88 158//82
f 155//91 154//79 158//82
f 141//81 151//80 92//93
f 93//168 92//93 149//89
f 146//85 145//84 143//94
f 142//77 144//76 141//81
f 130//74 122//72 17//95
f 146//85 143//94 144//76
f 5//3 4//2 126//97
f 109//11 108//21 7//12
f 6//101 107//99 119//68
f 121//65 112//64 9//9
f 108//21 107//99 120//98
f 134//154 12//102 21//103
f 3//6 2//5 125//105
f 7//12 120//98 129//107
f 13//109 6//101 128//108
f 4//2 3//6 11//96
f 17//95 121//65 16//14
f 8//8 7//12 15//13
f 120//98 6//101 14//106
f 11//96 125//105 133//111
f 138//116 17//95 25//16
f 15//13 129//107 24//15
f 14//106 13//109 136//114
f 135//118 128//108 22//115
f 126//97 11//96 21//103
f 26//146 130//74 138//116
f 125//105 124//104 20//110
f 129//107 14//106 137//112
f 13//109 128//108 23//113
f 22//115 127//69 140//119
f 78//60 79//59 89//61
f 76//123 41//121 30//25
f 103//34 76//123 102//1
f 101//10 29//26 100//4
f 106//27 107//99 34//28
f 111//100 112//64 38//17
f 108//21 35//20 107//99
f 41//121 83//126 92//128
f 29//26 82//129 75//124
f 38//17 88//131 37//18
f 28//138 39//132 74//134
f 36//19 43//30 35//20
f 34//28 77//125 42//137
f 76//123 31//38 41//121
f 30//25 40//122 29//26
f 38//17 78//60 88//131
f 75//124 81//130 28//138
f 35//20 87//135 77//125
f 33//23 34//28 85//139
f 40//122 47//140 82//129
f 87//135 50//142 86//136
f 85//139 42//137 48//145
f 27//147 132//155 123//75
f 41//121 92//128 40//122
f 89//61 45//120 96//62
f 27//147 123//75 130//74
f 82//129 91//141 81//130
f 88//131 95//63 44//29
f 43//30 51//32 87//135
f 42//137 86//136 49//144
f 114//35 99//71 1//36
f 117//66 104//37 10//150
f 1//36 116//73 18//151
f 12//102 10//150 126//97
f 2//5 1//36 124//104
f 131//70 117//66 12//102
f 132//155 27//147 26//146
f 22//115 136//114 23//113
f 24//15 21//103 133//111
f 135//118 22//115 23//113
f 140//119 136//114 22//115
f 20//110 25//16 133//111
f 132//155 26//146 139//153
f 138//116 19//117 26//146
f 134//152 24//15 137//112
f 25//16 24//15 133//111
f 20//110 138//116 25//16
f 134//152 137//112 140//119
f 124//104 18//151 19//117
f 137//112 136//114 140//119
f 20//110 19//117 138//116
f 140//119 131//70 134//154
f 26//146 19//117 139//153
f 18//151 123//75 139//153
f 114//35 28//138 99//71
f 103//34 115//33 76//123
f 100//4 75//124 114//35
f 32//24 33//23 84//156
f 31//38 32//24 83//126
f 98//158 53//148 90//160
f 91//141 96//62 46//149
f 53//148 97//161 90//160
f 83//126 84//156 93//127
f 50//142 48//145 94//143
f 52//31 93//157 51//32
f 96//62 47//140 95//63
f 48//145 49//144 94//143
f 47//140 92//128 95//63
f 96//62 98//158 46//149
f 50//142 54//159 48//145
f 96//62 53//148 98//158
f 81//130 46//149 39//132
f 93//157 54//159 51//32
f 92//128 52//31 95//63
f 54//159 50//142 51//32
f 96//62 91//141 47//140
f 39//132 98//158 80//133
f 84//156 85//139 54//159
f 80//133 45//120 74//134
f 97//161 53//148 45//120
f 56//41 67//40 140//163
f 97//161 45//120 80//133
f 134//164 140//163 63//53
f 62//56 21//55 63//53
f 134//165 21//55 55//42
f 142//77 54//166 153//78
f 150//167 54//166 149//89
f 134//165 55//42 56//41
f 141//81 92//93 93//169
f 93//169 142//77 141//81
