# Blender v2.71 (sub 0) OBJ File: 'bug.blend'
# www.blender.org
mtllib bugAnim_000003.mtl
o Cube
v -0.125258 0.032167 0.015585
v -0.103700 0.053831 0.015585
v -0.075320 0.074626 0.015585
v -0.042597 0.080716 0.015806
v -0.016362 0.068016 0.017535
v 0.120737 0.016378 0.015585
v 0.039076 -0.009238 0.015585
v -0.027500 -0.021711 0.015585
v -0.059169 -0.010598 0.015585
v 0.005781 0.063734 0.016303
v -0.036241 0.058784 0.029350
v -0.008195 0.047971 0.029150
v 0.058450 0.023262 0.028111
v 0.040732 0.013124 0.028111
v -0.027489 0.001181 0.028111
v -0.045849 0.007623 0.028111
v -0.065537 0.015056 0.028111
v -0.084163 0.032416 0.028111
v -0.046111 0.032583 0.037820
v -0.039172 0.037618 0.038527
v -0.024757 0.036326 0.038346
v 0.001053 0.035463 0.038113
v 0.008765 0.026665 0.037646
v -0.027480 0.019441 0.038377
v -0.035223 0.022158 0.038377
v -0.052793 0.026100 0.038377
v -0.064095 0.025804 0.038377
v -0.125258 0.032167 -0.015585
v -0.075320 0.074470 -0.015881
v -0.042597 0.080394 -0.016685
v 0.005781 0.063747 -0.016286
v 0.042364 0.058211 -0.015707
v 0.089197 0.059187 -0.015585
v 0.118323 0.041079 -0.015585
v 0.090175 -0.001111 -0.015585
v 0.039076 -0.009262 -0.015488
v -0.027500 -0.021916 -0.014459
v -0.059169 -0.010630 -0.015452
v -0.084163 0.032416 -0.028111
v -0.036241 0.059130 -0.029123
v -0.021032 0.050589 -0.029574
v 0.057050 0.037583 -0.028111
v 0.011108 0.007919 -0.027488
v -0.027489 0.000604 -0.027204
v -0.087508 0.016970 -0.028111
v -0.046111 0.035858 -0.038162
v -0.031171 0.040532 -0.038647
v 0.001053 0.036014 -0.038152
v 0.008174 0.032514 -0.037951
v 0.001292 0.022591 -0.037496
v -0.011202 0.019781 -0.036962
v -0.027480 0.017663 -0.037297
v -0.052793 0.025218 -0.038004
v -0.010398 0.034589 -0.038042
v -0.053886 0.026248 0.110052
v 0.023933 0.024042 0.109711
v -0.053886 0.020574 0.150425
v 0.023933 0.017920 0.150052
v -0.030075 0.013781 0.198763
v -0.020292 0.012567 0.198592
v -0.004130 0.011126 0.198390
v -0.024757 0.033904 0.038005
v -0.019343 0.032690 0.037835
v -0.010398 0.031442 0.037659
v -0.053886 0.023826 0.109711
v -0.024544 0.022612 0.109541
v 0.023933 0.021558 0.109374
v -0.053886 0.018152 0.150084
v -0.024544 0.016938 0.149914
v 0.023933 0.015498 0.149711
v -0.030075 0.011358 0.198423
v -0.020292 0.010145 0.198252
v -0.004130 0.008704 0.198050
v -0.154170 0.013716 -0.015585
v -0.103700 0.053831 -0.015585
v -0.016362 0.068040 -0.017513
v 0.120737 0.016378 -0.015585
v -0.093130 0.002223 -0.015585
v -0.131028 0.005525 -0.015585
v -0.100924 0.021719 -0.028111
v -0.071665 0.044705 -0.028147
v -0.055212 0.056366 -0.028469
v -0.008195 0.048055 -0.029122
v 0.013014 0.046338 -0.028387
v 0.040165 0.047680 -0.028207
v 0.058450 0.023262 -0.028111
v 0.040732 0.012929 -0.027902
v -0.045849 0.007245 -0.027620
v -0.065537 0.014847 -0.027903
v -0.058451 0.027445 -0.038135
v -0.039172 0.040074 -0.038459
v -0.024757 0.036651 -0.038348
v -0.019343 0.035112 -0.038175
v 0.008765 0.026907 -0.037731
v -0.035223 0.020666 -0.037584
v -0.043527 0.024084 -0.037840
v -0.064095 0.025230 -0.038130
v -0.051382 0.031145 -0.038017
v -0.172413 0.010983 -0.000131
v -0.114676 0.056865 0.000000
v -0.082210 0.080650 -0.000065
v -0.044775 0.087752 -0.000570
v -0.014762 0.074337 -0.000043
v 0.052420 0.062007 0.000000
v 0.105996 0.062993 0.000000
v 0.139317 0.042277 0.000000
v 0.142079 0.014019 -0.000000
v 0.107115 -0.005988 -0.000000
v 0.048659 -0.015286 -0.000000
v -0.027504 -0.029549 0.000077
v -0.063733 -0.016841 0.000000
v -0.102584 -0.002174 0.000000
v -0.145939 0.001603 0.000000
v -0.139338 0.032082 0.000000
v 0.010569 0.068760 0.000006
v -0.154170 0.013650 0.015458
v 0.042364 0.058164 0.015757
v 0.089197 0.059187 0.015585
v 0.118323 0.041079 0.015585
v 0.090175 -0.001111 0.015585
v -0.093130 0.002223 0.015585
v -0.131028 0.005525 0.015585
v -0.100924 0.021719 0.028111
v -0.071665 0.044975 0.028111
v -0.055212 0.057031 0.028111
v -0.021032 0.050268 0.029714
v 0.040165 0.047627 0.028219
v 0.057050 0.037583 0.028111
v 0.011108 0.008412 0.028111
v -0.087508 0.016970 0.028111
v 0.013014 0.046113 0.028437
v -0.058451 0.028103 0.038377
v -0.031171 0.039138 0.038741
v -0.019343 0.035112 0.038175
v 0.008174 0.032053 0.037864
v 0.001292 0.022535 0.037470
v -0.011202 0.020033 0.037094
v -0.043527 0.025293 0.038377
v -0.051382 0.032615 0.038377
v -0.010398 0.034314 0.038021
v -0.053886 0.026248 -0.110052
v 0.023933 0.023594 -0.109679
v -0.053886 0.020574 -0.150425
v 0.023933 0.017920 -0.150052
v -0.030075 0.013781 -0.198763
v -0.020292 0.012567 -0.198592
v -0.004130 0.011126 -0.198390
v -0.024757 0.033904 -0.038005
v -0.019343 0.032690 -0.037835
v -0.010398 0.031643 -0.037687
v -0.053886 0.023826 -0.109711
v -0.024544 0.022612 -0.109541
v 0.023933 0.021172 -0.109338
v -0.053886 0.018152 -0.150084
v -0.024544 0.016938 -0.149914
v 0.023933 0.015498 -0.149711
v -0.030075 0.011358 -0.198423
v -0.020292 0.010145 -0.198252
v -0.004130 0.008704 -0.198050
vn 0.089800 0.995800 -0.012700
vn 0.100600 0.782600 0.614300
vn 0.239800 0.731700 0.637900
vn -0.664000 0.747700 0.000100
vn -0.435600 0.510900 0.741100
vn -0.282800 0.666900 0.689400
vn -0.069500 -0.997600 -0.005900
vn -0.057500 -0.739200 0.670900
vn -0.251800 -0.690900 0.677600
vn -0.423900 0.905700 -0.001000
vn 0.166000 -0.986100 -0.000900
vn 0.124200 -0.716900 0.685900
vn -0.038900 -0.483900 0.874200
vn -0.172900 -0.474800 0.862900
vn -0.013400 -0.284200 0.958600
vn -0.089900 -0.255200 0.962700
vn -0.244100 -0.690000 -0.681400
vn -0.054000 -0.740100 -0.670300
vn 0.120700 -0.715200 -0.688300
vn 0.196600 -0.635200 -0.746900
vn 0.396500 -0.918000 0.000000
vn 0.373500 0.927600 0.000000
vn 0.146100 0.733800 -0.663400
vn 0.050700 0.857600 -0.511800
vn 0.094900 0.767700 -0.633700
vn -0.285300 0.661800 -0.693300
vn 0.891000 0.453900 0.000000
vn 0.407100 0.325200 -0.853500
vn -0.037400 -0.498300 -0.866200
vn 0.080800 -0.502400 -0.860800
vn -0.018200 -0.327100 -0.944800
vn 0.045400 -0.311000 -0.949300
vn 0.182000 0.983300 0.000400
vn 0.314700 0.949200 0.001200
vn -0.595000 0.803700 0.001100
vn -0.427500 0.528700 0.733200
vn 0.038700 0.999200 0.001000
vn 0.153700 0.781300 -0.604800
vn 0.720400 -0.686500 0.098500
vn 0.724300 -0.639100 -0.258600
vn 0.741600 0.667100 -0.069900
vn -0.721400 0.690800 -0.047800
vn -0.745500 -0.625500 -0.230000
vn -0.745800 -0.661700 0.077000
vn -0.378600 0.555000 0.740700
vn -0.460200 -0.645200 0.609900
vn -0.054500 -0.797900 0.600300
vn 0.054100 0.596900 0.800400
vn 0.365100 -0.733100 0.573700
vn 0.743300 0.605000 0.285200
vn -0.720800 0.641200 0.263300
vn -0.032100 -0.989600 -0.140200
vn -0.095900 -0.601400 -0.793100
vn -0.034900 -0.989700 -0.138600
vn -0.370400 0.760600 -0.533200
vn -0.510500 -0.410300 -0.755600
vn 0.425900 0.468400 0.774100
vn -0.262600 -0.964900 0.001900
vn -0.149100 -0.742200 -0.653400
vn -0.162700 -0.759000 -0.630400
vn -0.114800 -0.573100 -0.811400
vn -0.069300 -0.272100 -0.959700
vn -0.082900 -0.285200 -0.954800
vn -0.181300 -0.983400 -0.000000
vn -0.163900 -0.759200 0.629900
vn 0.051000 0.855100 0.516000
vn 0.145600 0.734100 0.663200
vn 0.407100 0.325200 0.853500
vn 0.063900 0.569600 0.819400
vn 0.025200 0.646100 0.762800
vn -0.992400 -0.122700 -0.002300
vn -0.150400 -0.740300 0.655200
vn -0.553400 -0.045600 0.831600
vn -0.110300 -0.571900 0.812800
vn -0.236400 0.001100 0.971600
vn 0.742700 0.607400 -0.281900
vn 0.743900 0.664500 0.071400
vn 0.721500 -0.642400 0.258200
vn -0.720200 0.642200 -0.262400
vn -0.745800 -0.661700 -0.077000
vn -0.745500 -0.625500 0.229900
vn -0.054500 -0.797900 -0.600300
vn -0.460200 -0.645200 -0.609900
vn -0.378600 0.555000 -0.740700
vn 0.054100 0.596900 -0.800400
vn 0.425800 0.468400 -0.774100
vn 0.365100 -0.733100 -0.573700
vn 0.721000 -0.685400 -0.102000
vn -0.090500 -0.603100 0.792500
vn -0.036000 -0.989400 0.140400
vn -0.036000 -0.989800 0.137500
vn -0.511300 -0.416400 0.751700
vn -0.349100 0.774700 0.527300
vn -0.719700 0.692600 0.047100
vn -0.117500 -0.559600 0.820400
vn 0.093900 0.503100 0.859100
vn 0.186700 0.508000 0.840800
vn 0.197500 -0.636200 0.745800
vn 0.919600 -0.392900 0.000000
vn -0.343000 -0.939300 -0.001100
vn 0.412500 -0.287400 0.864400
vn 0.106700 0.541000 0.834200
vn 0.111400 0.227700 0.967300
vn -0.251900 0.294400 0.921900
vn -0.168300 0.404000 0.899100
vn 0.120200 -0.387400 0.914000
vn 0.084800 -0.493000 0.865900
vn 0.186000 0.153400 0.970500
vn 0.180200 -0.130500 0.974900
vn -0.111300 0.195700 0.974300
vn 0.074300 0.261500 0.962300
vn 0.057800 -0.298900 0.952500
vn 0.117300 -0.151500 0.981400
vn 0.052000 -0.289700 0.955700
vn -0.018500 0.406300 0.913500
vn -0.087300 -0.232000 0.968700
vn -0.123400 0.166800 0.978200
vn 0.116600 0.090800 0.989000
vn 0.022000 0.258600 0.965700
vn -0.111100 -0.574900 -0.810600
vn 0.188800 0.509500 -0.839500
vn 0.091800 0.501600 -0.860200
vn 0.248100 0.731100 -0.635500
vn -0.436300 0.509700 -0.741400
vn 0.412300 -0.287500 -0.864500
vn 0.108000 0.541500 -0.833700
vn 0.127200 0.498000 -0.857800
vn 0.111400 0.202300 -0.973000
vn -0.173100 0.406200 -0.897200
vn -0.263400 0.304800 -0.915300
vn -0.164900 -0.486300 -0.858100
vn -0.267000 0.339600 -0.901900
vn -0.232800 0.000800 -0.972500
vn -0.550800 -0.041000 -0.833600
vn 0.117200 -0.398700 -0.909500
vn 0.180000 -0.136200 -0.974200
vn 0.186900 0.153600 -0.970300
vn -0.426700 0.531700 -0.731500
vn 0.067300 0.566800 -0.821100
vn 0.113000 0.279900 -0.953300
vn -0.079100 0.234900 -0.968800
vn 0.050100 -0.289600 -0.955800
vn 0.114900 -0.149600 -0.982000
vn 0.115600 0.095700 -0.988700
vn -0.033900 0.450400 -0.892200
vn -0.013000 -0.334700 0.942200
vn -0.173000 -0.087300 0.981000
vn -0.019300 -0.345400 -0.938200
vn -0.143100 0.154500 -0.977500
vn 0.153400 0.780800 0.605600
vn -0.271600 0.356400 0.893900
vn 0.005300 0.699800 0.714300
vn 0.114000 0.505000 0.855600
vn -0.134500 0.223900 0.965300
vn 0.025000 0.650600 -0.759000
vn 0.017600 -0.064000 -0.997800
vn -0.121900 0.140700 -0.982500
vn 0.012600 0.272100 -0.962200
vn -0.126600 0.263600 -0.956300
vn -0.171000 -0.090900 -0.981000
vn 0.376000 -0.565100 -0.734400
vn 0.452400 0.654400 -0.605800
vn -0.000500 0.137900 -0.990400
vn 0.118100 0.980700 0.155700
vn 0.442800 0.667700 0.598400
vn 0.383700 -0.555200 0.737900
vn 0.003700 0.137300 0.990500
vn 0.129800 0.976200 -0.173700
vn 0.039500 -0.029500 0.998800
usemtl Material
s 1
f 102//1 4//2 5//3
f 100//4 2//5 3//6
f 110//7 8//8 9//9
f 101//10 3//6 4//2
f 109//11 7//12 8//8
f 8//8 15//13 16//14
f 15//13 24//15 25//16
f 38//17 37//18 110//7
f 36//19 35//20 108//21
f 105//22 33//23 32//24
f 30//25 29//26 101//10
f 37//18 36//19 109//11
f 106//27 34//28 33//23
f 44//29 43//30 36//19
f 52//31 51//32 43//30
f 115//33 103//34 5//3
f 114//35 1//36 2//5
f 104//37 32//24 31//38
f 70//39 67//40 56//41
f 55//42 65//43 68//44
f 59//45 71//46 72//47
f 60//48 72//47 73//49
f 73//49 70//39 58//50
f 57//51 68//44 71//46
f 67//40 66//52 63//53
f 63//53 66//52 65//43
f 67//40 70//39 69//54
f 66//52 69//54 68//44
f 70//39 73//49 72//47
f 68//44 69//54 72//47
f 21//55 62//56 65//43
f 60//48 61//57 58//50
f 56//41 55//42 57//51
f 113//58 79//59 78//60
f 89//61 96//62 95//63
f 113//58 112//64 121//65
f 105//22 104//37 117//66
f 106//27 105//22 118//67
f 119//68 118//67 127//69
f 118//67 117//66 131//70
f 79//59 113//58 99//71
f 122//72 116//73 99//71
f 130//74 123//75 116//73
f 144//76 142//77 153//78
f 143//79 154//80 151//81
f 158//82 157//83 145//84
f 146//85 147//86 159//87
f 144//76 156//88 159//87
f 145//84 157//83 154//80
f 149//89 152//90 153//78
f 151//81 152//90 149//89
f 152//90 155//91 156//88
f 151//81 154//80 155//91
f 156//88 155//91 158//82
f 154//80 157//83 158//82
f 151//81 148//92 92//93
f 92//93 148//92 149//89
f 147//86 146//85 144//76
f 144//76 143//79 141//94
f 122//72 121//65 17//95
f 4//2 11//96 126//97
f 108//21 120//98 7//12
f 107//99 106//27 119//68
f 112//64 111//100 9//9
f 107//99 6//101 120//98
f 12//102 126//97 21//103
f 2//5 124//104 125//105
f 120//98 14//106 129//107
f 6//101 119//68 128//108
f 3//6 125//105 11//96
f 121//65 9//9 16//14
f 7//12 129//107 15//13
f 6//101 13//109 14//106
f 125//105 20//110 133//111
f 17//95 16//14 25//16
f 129//107 137//112 24//15
f 13//109 23//113 136//114
f 128//108 127//69 22//115
f 11//96 133//111 21//103
f 130//74 17//95 138//116
f 124//104 19//117 20//110
f 14//106 136//114 137//112
f 13//109 128//108 135//118
f 127//69 131//70 140//119
f 79//59 45//120 89//61
f 41//121 40//122 30//25
f 76//123 30//25 102//1
f 29//26 75//124 100//4
f 107//99 77//125 34//28
f 112//64 78//60 38//17
f 35//20 77//125 107//99
f 83//126 93//127 92//128
f 82//129 81//130 75//124
f 88//131 44//29 37//18
f 39//132 80//133 74//134
f 43//30 87//135 35//20
f 77//125 86//136 42//137
f 31//38 83//126 41//121
f 40//122 82//129 29//26
f 78//60 89//61 88//131
f 81//130 39//132 28//138
f 87//135 86//136 77//125
f 34//28 42//137 85//139
f 47//140 91//141 82//129
f 50//142 94//143 86//136
f 42//137 49//144 48//145
f 26//146 27//147 130//74
f 92//128 47//140 40//122
f 45//120 53//148 96//62
f 91//141 46//149 81//130
f 95//63 52//31 44//29
f 51//32 50//142 87//135
f 86//136 94//143 49//144
f 99//71 116//73 1//36
f 104//37 115//33 10//150
f 116//73 123//75 18//151
f 10//150 5//3 126//97
f 1//36 18//151 124//104
f 117//66 10//150 12//102
f 138//116 25//16 20//110
f 18//151 139//152 19//117
f 131//70 12//102 134//153
f 123//75 132//154 139//152
f 28//138 74//134 99//71
f 115//33 31//38 76//123
f 75//124 28//138 114//35
f 33//23 85//139 84//155
f 32//24 84//155 83//126
f 92//128 93//156 52//31
f 46//149 98//157 39//132
f 84//155 54//158 93//127
f 98//157 90//159 80//133
f 85//139 48//145 54//158
f 45//120 79//59 74//134
f 80//133 90//159 97//160
f 67//40 64//161 140//162
f 64//161 63//53 134//163
f 21//55 134//163 63//53
f 140//162 134//164 56//41
f 54//165 150//166 153//78
f 93//167 149//89 150//166
f 93//168 54//165 142//77
f 103//34 102//1 5//3
f 101//10 100//4 3//6
f 111//100 110//7 9//9
f 102//1 101//10 4//2
f 110//7 109//11 8//8
f 9//9 8//8 16//14
f 16//14 15//13 25//16
f 111//100 38//17 110//7
f 109//11 36//19 108//21
f 104//37 105//22 32//24
f 102//1 30//25 101//10
f 110//7 37//18 109//11
f 105//22 106//27 33//23
f 37//18 44//29 36//19
f 44//29 52//31 43//30
f 10//150 115//33 5//3
f 100//4 114//35 2//5
f 115//33 104//37 31//38
f 58//50 70//39 56//41
f 57//51 55//42 68//44
f 60//48 59//45 72//47
f 61//57 60//48 73//49
f 61//57 73//49 58//50
f 59//45 57//51 71//46
f 64//161 67//40 63//53
f 62//56 63//53 65//43
f 66//52 67//40 69//54
f 65//43 66//52 68//44
f 69//54 70//39 72//47
f 71//46 68//44 72//47
f 55//42 21//55 65//43
f 57//51 59//45 60//48
f 58//50 56//41 57//51
f 60//48 58//50 57//51
f 112//64 113//58 78//60
f 88//131 89//61 95//63
f 122//72 113//58 121//65
f 118//67 105//22 117//66
f 119//68 106//27 118//67
f 128//108 119//68 127//69
f 127//69 118//67 131//70
f 74//134 79//59 99//71
f 113//58 122//72 99//71
f 122//72 130//74 116//73
f 156//88 144//76 153//78
f 141//94 143//79 151//81
f 146//85 158//82 145//84
f 158//82 146//85 159//87
f 147//86 144//76 159//87
f 143//79 145//84 154//80
f 150//166 149//89 153//78
f 148//92 151//81 149//89
f 153//78 152//90 156//88
f 152//90 151//81 155//91
f 159//87 156//88 158//82
f 155//91 154//80 158//82
f 141//94 151//81 92//93
f 93//167 92//93 149//89
f 146//85 145//84 143//79
f 142//77 144//76 141//94
f 130//74 122//72 17//95
f 146//85 143//79 144//76
f 5//3 4//2 126//97
f 109//11 108//21 7//12
f 6//101 107//99 119//68
f 121//65 112//64 9//9
f 108//21 107//99 120//98
f 134//153 12//102 21//103
f 3//6 2//5 125//105
f 7//12 120//98 129//107
f 13//109 6//101 128//108
f 4//2 3//6 11//96
f 17//95 121//65 16//14
f 8//8 7//12 15//13
f 120//98 6//101 14//106
f 11//96 125//105 133//111
f 138//116 17//95 25//16
f 15//13 129//107 24//15
f 14//106 13//109 136//114
f 135//118 128//108 22//115
f 126//97 11//96 21//103
f 26//146 130//74 138//116
f 125//105 124//104 20//110
f 129//107 14//106 137//112
f 23//113 13//109 135//118
f 22//115 127//69 140//119
f 78//60 79//59 89//61
f 76//123 41//121 30//25
f 103//34 76//123 102//1
f 101//10 29//26 100//4
f 106//27 107//99 34//28
f 111//100 112//64 38//17
f 108//21 35//20 107//99
f 41//121 83//126 92//128
f 29//26 82//129 75//124
f 38//17 88//131 37//18
f 28//138 39//132 74//134
f 36//19 43//30 35//20
f 34//28 77//125 42//137
f 76//123 31//38 41//121
f 30//25 40//122 29//26
f 38//17 78//60 88//131
f 75//124 81//130 28//138
f 35//20 87//135 77//125
f 33//23 34//28 85//139
f 40//122 47//140 82//129
f 87//135 50//142 86//136
f 85//139 42//137 48//145
f 27//147 132//154 123//75
f 41//121 92//128 40//122
f 89//61 45//120 96//62
f 27//147 123//75 130//74
f 82//129 91//141 81//130
f 88//131 95//63 44//29
f 43//30 51//32 87//135
f 42//137 86//136 49//144
f 114//35 99//71 1//36
f 117//66 104//37 10//150
f 1//36 116//73 18//151
f 12//102 10//150 126//97
f 2//5 1//36 124//104
f 131//70 117//66 12//102
f 132//154 27//147 26//146
f 134//169 21//103 24//15
f 136//114 140//119 137//112
f 136//114 23//113 135//118
f 140//119 136//114 22//115
f 20//110 25//16 133//111
f 132//154 26//146 139//152
f 138//116 19//117 26//146
f 136//114 135//118 22//115
f 25//16 21//103 133//111
f 140//119 131//70 134//153
f 26//146 19//117 139//152
f 140//119 134//169 137//112
f 19//117 138//116 20//110
f 124//104 18//151 19//117
f 134//169 24//15 137//112
f 21//103 25//16 24//15
f 18//151 123//75 139//152
f 114//35 28//138 99//71
f 103//34 115//33 76//123
f 100//4 75//124 114//35
f 32//24 33//23 84//155
f 31//38 32//24 83//126
f 91//141 96//62 46//149
f 92//128 95//63 47//140
f 49//144 50//142 48//145
f 49//144 94//143 50//142
f 52//31 93//156 51//32
f 95//63 91//141 47//140
f 53//148 97//160 90//159
f 83//126 84//155 93//127
f 96//62 98//157 46//149
f 92//128 52//31 95//63
f 90//159 98//157 53//148
f 54//158 50//142 51//32
f 93//156 54//158 51//32
f 98//157 96//62 53//148
f 81//130 46//149 39//132
f 50//142 54//158 48//145
f 95//63 96//62 91//141
f 39//132 98//157 80//133
f 84//155 85//139 54//158
f 80//133 45//120 74//134
f 97//160 53//148 45//120
f 56//41 67//40 140//162
f 97//160 45//120 80//133
f 140//162 64//161 134//163
f 62//56 21//55 63//53
f 134//164 21//55 55//42
f 142//77 54//165 153//78
f 54//165 93//167 150//166
f 134//164 55//42 56//41
f 141//94 92//93 93//168
f 93//168 142//77 141//94
