# Blender v2.71 (sub 0) OBJ File: 'bug.blend'
# www.blender.org
mtllib bugAnim_000007.mtl
o Cube
v -0.125258 0.032167 0.015585
v -0.103700 0.053831 0.015585
v -0.075320 0.074626 0.015585
v -0.042597 0.080921 0.015512
v -0.016362 0.069565 0.015012
v 0.120737 0.016378 0.015585
v 0.039076 -0.009238 0.015585
v -0.027500 -0.021711 0.015585
v -0.059169 -0.010598 0.015585
v 0.005781 0.064401 0.015373
v -0.036241 0.061153 0.027727
v -0.008195 0.051840 0.027753
v 0.058450 0.023262 0.028111
v 0.040732 0.013124 0.028111
v -0.027489 0.001181 0.028111
v -0.045849 0.007623 0.028111
v -0.065537 0.015056 0.028111
v -0.084163 0.032416 0.028111
v -0.046111 0.039378 0.038399
v -0.039172 0.044459 0.038205
v -0.024757 0.043155 0.038255
v 0.001053 0.040253 0.038358
v 0.008765 0.029342 0.038525
v -0.027480 0.019441 0.038377
v -0.035223 0.022158 0.038377
v -0.052793 0.026100 0.038377
v -0.064095 0.025804 0.038377
v -0.125258 0.032167 -0.015585
v -0.075320 0.074661 -0.015500
v -0.042597 0.081012 -0.015272
v 0.005781 0.064398 -0.015378
v 0.042364 0.058354 -0.015549
v 0.089197 0.059187 -0.015585
v 0.118323 0.041079 -0.015585
v 0.090175 -0.001111 -0.015585
v 0.039076 -0.009230 -0.015611
v -0.027500 -0.021628 -0.015887
v -0.059169 -0.010586 -0.015620
v -0.084163 0.032416 -0.028111
v -0.036241 0.061065 -0.027797
v -0.021032 0.054814 -0.027630
v 0.057050 0.037583 -0.028111
v 0.011108 0.008561 -0.028268
v -0.027489 0.001360 -0.028344
v -0.087508 0.016970 -0.028111
v -0.046111 0.038477 -0.038386
v -0.031171 0.045615 -0.038206
v 0.001053 0.040101 -0.038360
v 0.008174 0.035426 -0.038438
v 0.001292 0.025014 -0.038571
v -0.011202 0.023264 -0.038697
v -0.027480 0.019953 -0.038628
v -0.052793 0.026350 -0.038457
v -0.010398 0.040225 -0.038361
v -0.053886 0.045921 0.110613
v 0.023933 0.043120 0.110717
v -0.053886 0.047479 0.151353
v 0.023933 0.044800 0.151455
v -0.030075 0.049343 0.200131
v -0.020292 0.048119 0.200178
v -0.004130 0.046665 0.200233
v -0.024757 0.040711 0.038348
v -0.019343 0.039486 0.038395
v -0.010398 0.037979 0.038448
v -0.053886 0.043477 0.110706
v -0.024544 0.042252 0.110753
v 0.023933 0.040692 0.110808
v -0.053886 0.045034 0.151446
v -0.024544 0.043810 0.151493
v 0.023933 0.042356 0.151549
v -0.030075 0.046899 0.200224
v -0.020292 0.045675 0.200271
v -0.004130 0.044221 0.200327
v -0.154170 0.013716 -0.015585
v -0.103700 0.053831 -0.015585
v -0.016362 0.069562 -0.015020
v 0.120737 0.016378 -0.015585
v -0.093130 0.002223 -0.015585
v -0.131028 0.005525 -0.015585
v -0.100924 0.021719 -0.028111
v -0.071665 0.045048 -0.028094
v -0.055212 0.057204 -0.027997
v -0.008195 0.051818 -0.027763
v 0.013014 0.047913 -0.028005
v 0.040165 0.048188 -0.028075
v 0.058450 0.023262 -0.028111
v 0.040732 0.013182 -0.028163
v -0.045849 0.007739 -0.028235
v -0.065537 0.015119 -0.028162
v -0.058451 0.028288 -0.038427
v -0.039172 0.043791 -0.038284
v -0.024757 0.043066 -0.038262
v -0.019343 0.041930 -0.038302
v 0.008765 0.029274 -0.038508
v -0.035223 0.022585 -0.038557
v -0.043527 0.025636 -0.038494
v -0.064095 0.025966 -0.038430
v -0.051382 0.033024 -0.038440
v -0.172413 0.010974 0.000036
v -0.114676 0.056865 0.000000
v -0.082210 0.080654 0.000018
v -0.044775 0.087828 0.000157
v -0.014762 0.074532 0.000012
v 0.052420 0.062007 0.000000
v 0.105996 0.062993 0.000000
v 0.139317 0.042277 0.000000
v 0.142079 0.014019 -0.000000
v 0.107115 -0.005988 -0.000000
v 0.048659 -0.015286 -0.000000
v -0.027504 -0.029554 -0.000021
v -0.063733 -0.016841 0.000000
v -0.102584 -0.002174 0.000000
v -0.145939 0.001603 0.000000
v -0.139338 0.032082 0.000000
v 0.010569 0.068810 -0.000002
v -0.154170 0.013737 0.015618
v 0.042364 0.058366 0.015534
v 0.089197 0.059187 0.015585
v 0.118323 0.041079 0.015585
v 0.090175 -0.001111 0.015585
v -0.093130 0.002223 0.015585
v -0.131028 0.005525 0.015585
v -0.100924 0.021719 0.028111
v -0.071665 0.044975 0.028111
v -0.055212 0.057031 0.028111
v -0.021032 0.054898 0.027584
v 0.040165 0.048202 0.028070
v 0.057050 0.037583 0.028111
v 0.011108 0.008412 0.028111
v -0.087508 0.016970 0.028111
v 0.013014 0.047974 0.027986
v -0.058451 0.028103 0.038377
v -0.031171 0.045993 0.038147
v -0.019343 0.041930 0.038302
v 0.008174 0.035554 0.038450
v 0.001292 0.025030 0.038577
v -0.011202 0.023192 0.038667
v -0.043527 0.025293 0.038377
v -0.051382 0.032615 0.038377
v -0.010398 0.040300 0.038360
v -0.053886 0.045921 -0.110613
v 0.023933 0.043243 -0.110715
v -0.053886 0.047479 -0.151353
v 0.023933 0.044800 -0.151455
v -0.030075 0.049343 -0.200131
v -0.020292 0.048119 -0.200178
v -0.004130 0.046665 -0.200233
v -0.024757 0.040711 -0.038348
v -0.019343 0.039486 -0.038395
v -0.010398 0.037924 -0.038445
v -0.053886 0.043477 -0.110706
v -0.024544 0.042252 -0.110753
v 0.023933 0.040799 -0.110809
v -0.053886 0.045034 -0.151446
v -0.024544 0.043810 -0.151493
v 0.023933 0.042356 -0.151549
v -0.030075 0.046899 -0.200224
v -0.020292 0.045675 -0.200271
v -0.004130 0.044221 -0.200327
vn 0.083300 0.996500 0.003700
vn 0.094500 0.778300 0.620700
vn 0.256500 0.773800 0.579200
vn -0.663900 0.747800 -0.000000
vn -0.435600 0.510900 0.741100
vn -0.281900 0.665600 0.690900
vn -0.071300 -0.997400 0.000900
vn -0.057700 -0.740000 0.670100
vn -0.251700 -0.691100 0.677500
vn -0.424700 0.905300 0.000100
vn 0.166800 -0.986000 0.000200
vn 0.124200 -0.716900 0.685900
vn -0.038900 -0.483900 0.874200
vn -0.172900 -0.474800 0.862900
vn -0.028500 -0.291300 0.956200
vn -0.090200 -0.247300 0.964700
vn -0.253500 -0.691200 -0.676700
vn -0.058300 -0.739100 -0.671100
vn 0.125000 -0.717200 -0.685500
vn 0.197700 -0.636500 -0.745500
vn 0.396500 -0.918000 0.000000
vn 0.374000 0.927400 0.000000
vn 0.147900 0.733000 -0.663900
vn 0.052900 0.872100 -0.486300
vn 0.095800 0.782600 -0.615100
vn -0.281300 0.666800 -0.690100
vn 0.891000 0.453900 0.000000
vn 0.407200 0.325200 -0.853500
vn -0.039100 -0.479600 -0.876600
vn 0.085500 -0.485800 -0.869900
vn -0.028000 -0.281000 -0.959300
vn 0.045400 -0.235100 -0.970900
vn 0.186300 0.982500 -0.000100
vn 0.314300 0.949300 -0.000200
vn -0.595100 0.803600 -0.000300
vn -0.426800 0.532400 0.731000
vn 0.039800 0.999200 -0.000200
vn 0.153900 0.807200 -0.569800
vn 0.742500 0.648200 0.168900
vn 0.721200 -0.656000 0.222500
vn 0.720800 -0.678700 -0.140200
vn -0.719200 0.673900 -0.168900
vn -0.745500 -0.656300 -0.115700
vn -0.745800 -0.637600 0.192800
vn -0.378600 0.677200 0.630800
vn -0.460200 -0.527100 0.714400
vn -0.054500 -0.679100 0.732000
vn 0.054100 0.729100 0.682200
vn 0.365100 -0.620100 0.694400
vn -0.720100 0.678700 0.144400
vn -0.037000 -0.998600 0.036800
vn -0.103500 -0.729300 -0.676300
vn -0.036300 -0.998500 0.040000
vn -0.370400 0.654300 -0.659300
vn -0.510500 -0.537500 -0.671200
vn 0.425800 0.598000 0.679000
vn 0.744400 0.640500 -0.188700
vn -0.262400 -0.964900 -0.000500
vn -0.149400 -0.742200 -0.653300
vn -0.164200 -0.759100 -0.629800
vn -0.117900 -0.555600 -0.823000
vn -0.073800 -0.239500 -0.968100
vn -0.092300 -0.240600 -0.966200
vn -0.181400 -0.983400 0.000000
vn -0.163900 -0.759200 0.629900
vn 0.052900 0.872800 0.485200
vn 0.148000 0.733000 0.664000
vn 0.407200 0.325200 0.853500
vn 0.092000 0.557400 0.825100
vn 0.049400 0.727500 0.684300
vn -0.992400 -0.123100 0.000600
vn -0.149100 -0.742600 0.652900
vn -0.553000 -0.039700 0.832200
vn -0.110100 -0.571900 0.812800
vn -0.233900 0.000000 0.972300
vn 0.742700 0.647700 -0.170000
vn 0.743700 0.641400 0.188300
vn 0.721600 -0.677900 0.140500
vn -0.745800 -0.637600 -0.192800
vn -0.745500 -0.656300 0.115700
vn -0.719700 0.673400 0.169000
vn -0.054500 -0.679100 -0.732000
vn -0.460200 -0.527100 -0.714400
vn -0.378600 0.677200 -0.630800
vn 0.054100 0.729100 -0.682200
vn 0.425800 0.598000 -0.679000
vn 0.365100 -0.620100 -0.694400
vn 0.721000 -0.656500 -0.221700
vn -0.105000 -0.729100 0.676400
vn -0.036000 -0.998700 -0.036900
vn -0.036000 -0.998500 -0.039700
vn -0.510400 -0.536900 0.671700
vn -0.376300 0.649100 0.661100
vn -0.720200 0.678500 -0.144700
vn -0.117500 -0.559600 0.820400
vn 0.075000 0.558900 0.825800
vn 0.197300 0.610600 0.767000
vn 0.197500 -0.636200 0.745800
vn 0.919600 -0.392900 0.000000
vn -0.343000 -0.939300 0.000200
vn 0.412500 -0.287400 0.864400
vn 0.123900 0.638400 0.759600
vn 0.094800 0.319300 0.942900
vn -0.277100 0.324200 0.904500
vn -0.181900 0.440600 0.879100
vn 0.121200 -0.391800 0.912000
vn 0.084700 -0.487900 0.868700
vn 0.192300 0.154300 0.969100
vn 0.183500 -0.132100 0.974100
vn -0.091100 0.288400 0.953200
vn 0.068800 0.366900 0.927700
vn 0.042000 -0.236600 0.970700
vn 0.126500 -0.097000 0.987200
vn 0.058100 -0.249100 0.966700
vn 0.028000 0.441000 0.897100
vn -0.070900 -0.244800 0.967000
vn -0.145600 0.194200 0.970100
vn 0.125200 0.133000 0.983200
vn 0.048400 0.358200 0.932400
vn -0.109700 -0.571200 -0.813500
vn 0.196500 0.610300 -0.767300
vn 0.075400 0.559300 -0.825500
vn 0.254600 0.773900 -0.579700
vn -0.435300 0.511200 -0.741000
vn 0.412500 -0.287400 -0.864400
vn 0.123500 0.638300 -0.759800
vn 0.125900 0.652200 -0.747500
vn 0.094200 0.324100 -0.941300
vn -0.180200 0.439200 -0.880100
vn -0.273600 0.321700 -0.906400
vn -0.174600 -0.471300 -0.864500
vn -0.280900 0.358600 -0.890200
vn -0.234700 0.000100 -0.972000
vn -0.553700 -0.041200 -0.831700
vn 0.122000 -0.389300 -0.913000
vn 0.183600 -0.130800 -0.974200
vn 0.192200 0.154200 -0.969100
vn -0.427000 0.531600 -0.731400
vn 0.091300 0.557900 -0.824900
vn 0.057900 0.358700 -0.931600
vn -0.097700 0.273900 -0.956800
vn 0.058400 -0.249900 -0.966500
vn 0.127100 -0.097900 -0.987000
vn 0.125600 0.131700 -0.983300
vn 0.030500 0.430100 -0.902200
vn -0.024400 -0.342700 0.939100
vn -0.173000 -0.087300 0.981000
vn -0.024800 -0.341600 -0.939500
vn -0.144700 0.186800 -0.971700
vn 0.154000 0.807300 0.569600
vn -0.279500 0.354100 0.892500
vn -0.009100 0.010800 0.999900
vn -0.132700 0.123300 0.983400
vn 0.130600 0.649500 0.749100
vn -0.134500 0.223900 0.965300
vn 0.049300 0.726800 -0.685100
vn -0.004500 0.017800 -0.999800
vn -0.139300 0.156200 -0.977800
vn 0.050500 0.354300 -0.933800
vn -0.136100 0.217400 -0.966600
vn -0.173100 -0.086200 -0.981100
vn 0.367100 -0.690700 -0.623000
vn -0.000200 -0.038200 -0.999300
vn 0.479200 0.502800 -0.719400
vn 0.149900 0.988100 -0.034000
vn 0.481200 0.498800 0.720900
vn 0.364900 -0.693100 0.621700
vn -0.000800 -0.038100 0.999300
vn 0.146500 0.988400 0.039100
usemtl Material
s 1
f 102//1 4//2 5//3
f 100//4 2//5 3//6
f 110//7 8//8 9//9
f 101//10 3//6 4//2
f 109//11 7//12 8//8
f 8//8 15//13 16//14
f 15//13 24//15 25//16
f 38//17 37//18 110//7
f 36//19 35//20 108//21
f 105//22 33//23 32//24
f 30//25 29//26 101//10
f 37//18 36//19 109//11
f 106//27 34//28 33//23
f 44//29 43//30 36//19
f 52//31 51//32 43//30
f 115//33 103//34 5//3
f 114//35 1//36 2//5
f 104//37 32//24 31//38
f 58//39 70//40 67//41
f 55//42 65//43 68//44
f 59//45 71//46 72//47
f 60//48 72//47 73//49
f 73//49 70//40 58//39
f 59//45 57//50 68//44
f 67//41 66//51 63//52
f 63//52 66//51 65//43
f 67//41 70//40 69//53
f 65//43 66//51 69//53
f 70//40 73//49 72//47
f 68//44 69//53 72//47
f 21//54 62//55 65//43
f 60//48 61//56 58//39
f 56//57 55//42 57//50
f 113//58 79//59 78//60
f 89//61 96//62 95//63
f 113//58 112//64 121//65
f 105//22 104//37 117//66
f 106//27 105//22 118//67
f 119//68 118//67 127//69
f 118//67 117//66 131//70
f 79//59 113//58 99//71
f 122//72 116//73 99//71
f 130//74 123//75 116//73
f 144//76 142//77 153//78
f 154//79 151//80 141//81
f 158//82 157//83 145//84
f 146//85 147//86 159//87
f 144//76 156//88 159//87
f 145//84 157//83 154//79
f 149//89 152//90 153//78
f 151//80 152//90 149//89
f 153//78 152//90 155//91
f 151//80 154//79 155//91
f 156//88 155//91 158//82
f 154//79 157//83 158//82
f 141//81 151//80 148//92
f 92//93 148//92 149//89
f 147//86 146//85 144//76
f 144//76 143//94 141//81
f 122//72 121//65 17//95
f 4//2 11//96 126//97
f 108//21 120//98 7//12
f 107//99 106//27 119//68
f 112//64 111//100 9//9
f 107//99 6//101 120//98
f 12//102 126//97 21//103
f 2//5 124//104 125//105
f 120//98 14//106 129//107
f 6//101 119//68 128//108
f 3//6 125//105 11//96
f 121//65 9//9 16//14
f 7//12 129//107 15//13
f 6//101 13//109 14//106
f 125//105 20//110 133//111
f 17//95 16//14 25//16
f 129//107 137//112 24//15
f 13//109 23//113 136//114
f 128//108 127//69 22//115
f 11//96 133//111 21//103
f 130//74 17//95 138//116
f 124//104 19//117 20//110
f 14//106 136//114 137//112
f 13//109 128//108 135//118
f 127//69 131//70 140//119
f 79//59 45//120 89//61
f 41//121 40//122 30//25
f 76//123 30//25 102//1
f 29//26 75//124 100//4
f 107//99 77//125 34//28
f 112//64 78//60 38//17
f 35//20 77//125 107//99
f 83//126 93//127 92//128
f 82//129 81//130 75//124
f 88//131 44//29 37//18
f 39//132 80//133 74//134
f 43//30 87//135 35//20
f 77//125 86//136 42//137
f 31//38 83//126 41//121
f 40//122 82//129 29//26
f 78//60 89//61 88//131
f 81//130 39//132 28//138
f 87//135 86//136 77//125
f 34//28 42//137 85//139
f 47//140 91//141 82//129
f 50//142 94//143 86//136
f 42//137 49//144 48//145
f 26//146 27//147 130//74
f 92//128 47//140 40//122
f 45//120 53//148 96//62
f 91//141 46//149 81//130
f 95//63 52//31 44//29
f 51//32 50//142 87//135
f 86//136 94//143 49//144
f 99//71 116//73 1//36
f 104//37 115//33 10//150
f 116//73 123//75 18//151
f 10//150 5//3 126//97
f 1//36 18//151 124//104
f 117//66 10//150 12//102
f 24//15 137//112 134//152
f 18//151 139//153 19//117
f 131//70 12//102 134//154
f 123//75 132//155 139//153
f 28//138 74//134 99//71
f 115//33 31//38 76//123
f 75//124 28//138 114//35
f 33//23 85//139 84//156
f 32//24 84//156 83//126
f 51//32 52//31 93//157
f 46//149 98//158 39//132
f 84//156 54//159 93//127
f 98//158 90//160 80//133
f 85//139 48//145 54//159
f 45//120 79//59 74//134
f 80//133 90//160 97//161
f 56//57 67//41 64//162
f 64//162 63//52 134//163
f 21//54 134//163 63//52
f 140//164 134//165 56//57
f 142//77 54//166 150//167
f 93//168 149//89 150//167
f 93//169 54//166 142//77
f 103//34 102//1 5//3
f 101//10 100//4 3//6
f 111//100 110//7 9//9
f 102//1 101//10 4//2
f 110//7 109//11 8//8
f 9//9 8//8 16//14
f 16//14 15//13 25//16
f 111//100 38//17 110//7
f 109//11 36//19 108//21
f 104//37 105//22 32//24
f 102//1 30//25 101//10
f 110//7 37//18 109//11
f 105//22 106//27 33//23
f 37//18 44//29 36//19
f 44//29 52//31 43//30
f 10//150 115//33 5//3
f 100//4 114//35 2//5
f 115//33 104//37 31//38
f 56//57 58//39 67//41
f 57//50 55//42 68//44
f 60//48 59//45 72//47
f 61//56 60//48 73//49
f 61//56 73//49 58//39
f 71//46 59//45 68//44
f 64//162 67//41 63//52
f 62//55 63//52 65//43
f 66//51 67//41 69//53
f 68//44 65//43 69//53
f 69//53 70//40 72//47
f 71//46 68//44 72//47
f 55//42 21//54 65//43
f 57//50 59//45 60//48
f 58//39 56//57 57//50
f 60//48 58//39 57//50
f 112//64 113//58 78//60
f 88//131 89//61 95//63
f 122//72 113//58 121//65
f 118//67 105//22 117//66
f 119//68 106//27 118//67
f 128//108 119//68 127//69
f 127//69 118//67 131//70
f 74//134 79//59 99//71
f 113//58 122//72 99//71
f 122//72 130//74 116//73
f 156//88 144//76 153//78
f 143//94 154//79 141//81
f 146//85 158//82 145//84
f 158//82 146//85 159//87
f 147//86 144//76 159//87
f 143//94 145//84 154//79
f 150//167 149//89 153//78
f 148//92 151//80 149//89
f 156//88 153//78 155//91
f 152//90 151//80 155//91
f 159//87 156//88 158//82
f 155//91 154//79 158//82
f 92//93 141//81 148//92
f 93//168 92//93 149//89
f 146//85 145//84 143//94
f 142//77 144//76 141//81
f 130//74 122//72 17//95
f 146//85 143//94 144//76
f 5//3 4//2 126//97
f 109//11 108//21 7//12
f 6//101 107//99 119//68
f 121//65 112//64 9//9
f 108//21 107//99 120//98
f 134//154 12//102 21//103
f 3//6 2//5 125//105
f 7//12 120//98 129//107
f 13//109 6//101 128//108
f 4//2 3//6 11//96
f 17//95 121//65 16//14
f 8//8 7//12 15//13
f 120//98 6//101 14//106
f 11//96 125//105 133//111
f 138//116 17//95 25//16
f 15//13 129//107 24//15
f 14//106 13//109 136//114
f 135//118 128//108 22//115
f 126//97 11//96 21//103
f 26//146 130//74 138//116
f 125//105 124//104 20//110
f 129//107 14//106 137//112
f 23//113 13//109 135//118
f 22//115 127//69 140//119
f 78//60 79//59 89//61
f 76//123 41//121 30//25
f 103//34 76//123 102//1
f 101//10 29//26 100//4
f 106//27 107//99 34//28
f 111//100 112//64 38//17
f 108//21 35//20 107//99
f 41//121 83//126 92//128
f 29//26 82//129 75//124
f 38//17 88//131 37//18
f 28//138 39//132 74//134
f 36//19 43//30 35//20
f 34//28 77//125 42//137
f 76//123 31//38 41//121
f 30//25 40//122 29//26
f 38//17 78//60 88//131
f 75//124 81//130 28//138
f 35//20 87//135 77//125
f 33//23 34//28 85//139
f 40//122 47//140 82//129
f 87//135 50//142 86//136
f 85//139 42//137 48//145
f 27//147 132//155 123//75
f 41//121 92//128 40//122
f 89//61 45//120 96//62
f 27//147 123//75 130//74
f 82//129 91//141 81//130
f 88//131 95//63 44//29
f 43//30 51//32 87//135
f 42//137 86//136 49//144
f 114//35 99//71 1//36
f 117//66 104//37 10//150
f 1//36 116//73 18//151
f 12//102 10//150 126//97
f 2//5 1//36 124//104
f 131//70 117//66 12//102
f 132//155 27//147 26//146
f 24//15 21//103 25//16
f 25//16 21//103 133//111
f 22//115 136//114 135//118
f 20//110 25//16 133//111
f 139//153 138//116 19//117
f 139//153 132//155 26//146
f 136//114 23//113 135//118
f 20//110 138//116 25//16
f 136//114 22//115 140//119
f 26//146 138//116 139//153
f 124//104 18//151 19//117
f 137//112 136//114 140//119
f 138//116 20//110 19//117
f 137//112 140//119 134//152
f 140//119 131//70 134//154
f 24//15 134//152 21//103
f 18//151 123//75 139//153
f 114//35 28//138 99//71
f 103//34 115//33 76//123
f 100//4 75//124 114//35
f 32//24 33//23 84//156
f 31//38 32//24 83//126
f 91//141 96//62 46//149
f 92//128 95//63 47//140
f 49//144 50//142 48//145
f 49//144 94//143 50//142
f 95//63 92//128 52//31
f 53//148 97//161 90//160
f 52//31 92//128 93//157
f 50//142 54//159 48//145
f 51//32 54//159 50//142
f 96//62 91//141 95//63
f 90//160 98//158 53//148
f 98//158 96//62 53//148
f 95//63 91//141 47//140
f 81//130 46//149 39//132
f 83//126 84//156 93//127
f 96//62 98//158 46//149
f 51//32 93//157 54//159
f 39//132 98//158 80//133
f 84//156 85//139 54//159
f 80//133 45//120 74//134
f 97//161 53//148 45//120
f 140//164 56//57 64//162
f 97//161 45//120 80//133
f 140//164 64//162 134//163
f 62//55 21//54 63//52
f 134//165 21//54 55//42
f 153//78 142//77 150//167
f 54//166 93//168 150//167
f 134//165 55//42 56//57
f 141//81 92//93 93//169
f 93//169 142//77 141//81
