# Blender v2.71 (sub 0) OBJ File: 'bug.blend'
# www.blender.org
mtllib bugAnim_000008.mtl
o Cube
v -0.125258 0.032167 0.015585
v -0.103700 0.053831 0.015585
v -0.075320 0.074626 0.015585
v -0.042597 0.080221 0.015982
v -0.016362 0.065839 0.019651
v 0.120737 0.016378 0.015585
v 0.039076 -0.009238 0.015585
v -0.027500 -0.021711 0.015585
v -0.059169 -0.010598 0.015585
v 0.005781 0.062862 0.017073
v -0.036241 0.056165 0.030529
v -0.008195 0.043916 0.029842
v 0.058450 0.023262 0.028111
v 0.040732 0.013124 0.028111
v -0.027489 0.001181 0.028111
v -0.045849 0.007623 0.028111
v -0.065537 0.015056 0.028111
v -0.084163 0.032416 0.028111
v -0.046111 0.025998 0.036047
v -0.039172 0.030828 0.037634
v -0.024757 0.029588 0.037227
v 0.001053 0.030792 0.037025
v 0.008765 0.024185 0.036308
v -0.027480 0.019441 0.038377
v -0.035223 0.022158 0.038377
v -0.052793 0.026100 0.038377
v -0.064095 0.025804 0.038377
v -0.125258 0.032167 -0.015585
v -0.075320 0.074214 -0.016222
v -0.042597 0.079520 -0.017961
v 0.005781 0.062899 -0.017039
v 0.042364 0.058042 -0.015838
v 0.089197 0.059187 -0.015585
v 0.118323 0.041079 -0.015585
v 0.090175 -0.001111 -0.015585
v 0.039076 -0.009273 -0.015361
v -0.027500 -0.021948 -0.013003
v -0.059169 -0.010643 -0.015278
v -0.084163 0.032416 -0.028111
v -0.036241 0.056991 -0.030086
v -0.021032 0.046087 -0.030740
v 0.057050 0.037583 -0.028111
v 0.011108 0.007425 -0.026607
v -0.027489 0.000062 -0.025949
v -0.087508 0.016970 -0.028111
v -0.046111 0.033319 -0.037479
v -0.031171 0.035451 -0.038181
v 0.001053 0.032028 -0.037223
v 0.008174 0.029735 -0.036956
v 0.001292 0.020397 -0.036009
v -0.011202 0.016659 -0.034639
v -0.027480 0.015645 -0.035580
v -0.052793 0.024183 -0.037358
v -0.010398 0.029099 -0.036732
v -0.053886 0.006985 0.106019
v 0.023933 0.005443 0.105345
v -0.053886 -0.005742 0.144752
v 0.023933 -0.008288 0.143915
v -0.030075 -0.020979 0.191126
v -0.020292 -0.022144 0.190743
v -0.004130 -0.023526 0.190289
v -0.024757 0.027265 0.036463
v -0.019343 0.026100 0.036081
v -0.010398 0.025148 0.035726
v -0.053886 0.004661 0.105256
v -0.024544 0.003497 0.104873
v 0.023933 0.002979 0.104579
v -0.053886 -0.008066 0.143988
v -0.024544 -0.009230 0.143605
v 0.023933 -0.010612 0.143151
v -0.030075 -0.023303 0.190362
v -0.020292 -0.024467 0.189980
v -0.004130 -0.025849 0.189526
v -0.154170 0.013716 -0.015585
v -0.103700 0.053831 -0.015585
v -0.016362 0.065921 -0.019615
v 0.120737 0.016378 -0.015585
v -0.093130 0.002223 -0.015585
v -0.131028 0.005525 -0.015585
v -0.100924 0.021719 -0.028111
v -0.071665 0.044358 -0.028137
v -0.055212 0.055458 -0.028786
v -0.008195 0.044112 -0.029794
v 0.013014 0.044720 -0.028485
v 0.040165 0.047156 -0.028247
v 0.058450 0.023262 -0.028111
v 0.040732 0.012725 -0.027601
v -0.045849 0.006867 -0.026926
v -0.065537 0.014625 -0.027600
v -0.058451 0.026666 -0.037699
v -0.039172 0.036384 -0.037973
v -0.024757 0.030321 -0.037296
v -0.019343 0.028424 -0.036844
v 0.008765 0.024715 -0.036548
v -0.035223 0.018950 -0.036287
v -0.043527 0.022672 -0.036921
v -0.064095 0.024558 -0.037704
v -0.051382 0.029371 -0.037268
v -0.172413 0.011021 -0.000295
v -0.114676 0.056865 0.000000
v -0.082210 0.080631 -0.000146
v -0.044775 0.087412 -0.001279
v -0.014762 0.073464 -0.000097
v 0.052420 0.062007 0.000000
v 0.105996 0.062993 0.000000
v 0.139317 0.042277 0.000000
v 0.142079 0.014019 -0.000000
v 0.107115 -0.005988 -0.000000
v 0.048659 -0.015286 -0.000000
v -0.027504 -0.029527 0.000173
v -0.063733 -0.016841 0.000000
v -0.102584 -0.002174 0.000000
v -0.145939 0.001603 0.000000
v -0.139338 0.032082 0.000000
v 0.010569 0.068535 0.000013
v -0.154170 0.013593 0.015285
v 0.042364 0.057926 0.015941
v 0.089197 0.059187 0.015585
v 0.118323 0.041079 0.015585
v 0.090175 -0.001111 0.015585
v -0.093130 0.002223 0.015585
v -0.131028 0.005525 0.015585
v -0.100924 0.021719 0.028111
v -0.071665 0.044975 0.028111
v -0.055212 0.057031 0.028111
v -0.021032 0.045334 0.030992
v 0.040165 0.047034 0.028265
v 0.057050 0.037583 0.028111
v 0.011108 0.008412 0.028111
v -0.087508 0.016970 0.028111
v 0.013014 0.044203 0.028552
v -0.058451 0.028103 0.038377
v -0.031171 0.032286 0.038113
v -0.019343 0.028424 0.036844
v 0.008174 0.028712 0.036668
v 0.001292 0.020275 0.035938
v -0.011202 0.017201 0.034986
v -0.043527 0.025293 0.038377
v -0.051382 0.032615 0.038377
v -0.010398 0.028483 0.036629
v -0.053886 0.006985 -0.106019
v 0.023933 0.004438 -0.105182
v -0.053886 -0.005742 -0.144752
v 0.023933 -0.008288 -0.143915
v -0.030075 -0.020979 -0.191126
v -0.020292 -0.022144 -0.190743
v -0.004130 -0.023526 -0.190289
v -0.024757 0.027265 -0.036463
v -0.019343 0.026100 -0.036081
v -0.010398 0.025594 -0.035830
v -0.053886 0.004661 -0.105256
v -0.024544 0.003497 -0.104873
v 0.023933 0.002115 -0.104419
v -0.053886 -0.008066 -0.143988
v -0.024544 -0.009230 -0.143605
v 0.023933 -0.010612 -0.143151
v -0.030075 -0.023303 -0.190362
v -0.020292 -0.024467 -0.189980
v -0.004130 -0.025849 -0.189526
vn 0.104200 0.994200 -0.026700
vn 0.116500 0.783300 0.610600
vn 0.218000 0.687100 0.693000
vn -0.664000 0.747700 0.000100
vn -0.435600 0.510900 0.741100
vn -0.278700 0.670900 0.687200
vn -0.066100 -0.997600 -0.020500
vn -0.057400 -0.738800 0.671400
vn -0.251900 -0.690800 0.677700
vn -0.420000 0.907500 -0.003700
vn 0.164600 -0.986300 -0.002800
vn 0.124200 -0.716900 0.685900
vn -0.038900 -0.483900 0.874200
vn -0.172900 -0.474800 0.862900
vn 0.018000 -0.233100 0.972300
vn -0.078100 -0.218600 0.972700
vn -0.232200 -0.687200 -0.688300
vn -0.046200 -0.733800 -0.677800
vn 0.114800 -0.711500 -0.693300
vn 0.194900 -0.633700 -0.748600
vn 0.396400 -0.918100 -0.000000
vn 0.372800 0.927900 0.000100
vn 0.143500 0.734200 -0.663600
vn 0.045800 0.842000 -0.537400
vn 0.101400 0.751100 -0.652400
vn -0.285300 0.656900 -0.697900
vn 0.891000 0.453900 0.000000
vn 0.407000 0.325300 -0.853500
vn -0.034100 -0.512600 -0.858000
vn 0.073300 -0.510700 -0.856600
vn -0.003300 -0.363100 -0.931700
vn 0.046100 -0.370700 -0.927600
vn 0.167100 0.985900 0.001100
vn 0.311300 0.950300 0.003800
vn -0.594600 0.804000 0.002600
vn -0.428100 0.525100 0.735500
vn 0.035900 0.999300 0.002500
vn 0.145400 0.757300 -0.636600
vn 0.719700 -0.693700 -0.029000
vn 0.727300 -0.579900 -0.366900
vn 0.739200 0.671500 0.051400
vn -0.721500 0.583000 0.373600
vn -0.723500 0.686300 0.074000
vn -0.745500 -0.574900 -0.337000
vn -0.378600 0.415200 0.827200
vn -0.460200 -0.742900 0.486100
vn -0.054500 -0.891500 0.449700
vn 0.054100 0.445900 0.893400
vn 0.365100 -0.823100 0.435000
vn 0.744100 0.541400 0.391300
vn -0.745800 -0.664800 -0.041300
vn -0.027200 -0.949300 -0.313000
vn -0.090200 -0.455500 -0.885600
vn -0.033500 -0.949200 -0.312700
vn -0.370400 0.842900 -0.390200
vn -0.510500 -0.270100 -0.816300
vn 0.425800 0.324100 0.844700
vn -0.263500 -0.964600 0.004200
vn -0.148800 -0.742200 -0.653400
vn -0.160700 -0.757900 -0.632200
vn -0.108900 -0.588200 -0.801400
vn -0.058700 -0.299000 -0.952500
vn -0.067200 -0.323000 -0.944000
vn -0.181100 -0.983500 -0.000200
vn -0.163900 -0.759200 0.629900
vn 0.046600 0.835900 0.546800
vn 0.142400 0.734900 0.663100
vn 0.407000 0.325300 0.853500
vn 0.027200 0.590100 0.806800
vn -0.000800 0.571400 0.820600
vn -0.992600 -0.121500 -0.005200
vn -0.152200 -0.737400 0.658000
vn -0.553700 -0.050300 0.831100
vn -0.110500 -0.571900 0.812800
vn -0.239000 0.001800 0.971000
vn 0.742700 0.548000 -0.384900
vn 0.744000 0.666500 -0.048000
vn 0.721500 -0.586800 0.367500
vn -0.745800 -0.664800 0.041300
vn -0.745500 -0.575100 0.336700
vn -0.719700 0.690000 -0.076400
vn -0.054500 -0.891500 -0.449700
vn -0.460200 -0.742900 -0.486100
vn -0.378600 0.415200 -0.827200
vn 0.054100 0.445900 -0.893400
vn 0.425800 0.324100 -0.844700
vn 0.365100 -0.823100 -0.435000
vn 0.721000 -0.692600 0.020800
vn -0.720200 0.585700 -0.371900
vn -0.084900 -0.464700 0.881300
vn -0.036000 -0.949000 0.313200
vn -0.036000 -0.949900 0.310400
vn -0.513100 -0.292000 0.807100
vn -0.322900 0.866800 0.380000
vn -0.117500 -0.559600 0.820400
vn 0.118700 0.447600 0.886300
vn 0.172800 0.395800 0.901900
vn 0.197500 -0.636200 0.745800
vn 0.919600 -0.392900 0.000000
vn -0.342800 -0.939400 -0.003300
vn 0.412500 -0.287400 0.864400
vn 0.094100 0.435900 0.895000
vn 0.135800 0.189800 0.972400
vn -0.225300 0.261300 0.938600
vn -0.149400 0.378800 0.913300
vn 0.115100 -0.375100 0.919800
vn 0.084100 -0.481800 0.872200
vn 0.175900 0.155100 0.972100
vn 0.173600 -0.127400 0.976500
vn -0.133200 0.181000 0.974400
vn 0.087000 0.192700 0.977400
vn 0.094800 -0.271400 0.957800
vn 0.110500 -0.198300 0.973900
vn 0.039500 -0.326000 0.944500
vn -0.075100 0.373600 0.924500
vn -0.234800 0.044100 0.971000
vn -0.081400 0.656600 0.749800
vn 0.104000 0.073400 0.991900
vn -0.003700 0.159600 0.987200
vn -0.110400 -0.578400 -0.808200
vn 0.176500 0.400800 -0.899000
vn 0.113700 0.445400 -0.888100
vn 0.239600 0.685900 -0.687100
vn -0.436300 0.508500 -0.742300
vn 0.412000 -0.287500 -0.864600
vn 0.096300 0.436800 -0.894400
vn 0.125600 0.343300 -0.930800
vn 0.128000 0.088600 -0.987800
vn -0.161600 0.373900 -0.913300
vn -0.248700 0.287500 -0.924900
vn -0.150900 -0.497200 -0.854400
vn -0.250800 0.320600 -0.913400
vn -0.230000 0.001500 -0.973100
vn -0.547800 -0.041700 -0.835500
vn 0.108200 -0.406000 -0.907400
vn 0.173400 -0.142200 -0.974500
vn 0.178200 0.155300 -0.971600
vn -0.426200 0.531900 -0.731700
vn 0.036300 0.581300 -0.812900
vn 0.167900 0.198500 -0.965600
vn -0.044200 0.200800 -0.978600
vn 0.034800 -0.331800 -0.942700
vn 0.105200 -0.198600 -0.974400
vn 0.102000 0.083900 -0.991200
vn -0.123100 0.476700 -0.870400
vn 0.058700 -0.309800 0.949000
vn -0.173000 -0.087300 0.981000
vn -0.003300 -0.344000 -0.938900
vn -0.129800 0.133700 -0.982500
vn 0.144200 0.756200 0.638200
vn -0.259400 0.358900 0.896600
vn 0.447200 0.836500 0.316600
vn 0.102900 0.353100 0.929900
vn -0.134500 0.223900 0.965300
vn -0.003900 0.586000 -0.810200
vn 0.043900 -0.141700 -0.988900
vn -0.094400 0.142900 -0.985200
vn -0.028500 0.187300 -0.981900
vn -0.108300 0.358300 -0.927300
vn -0.164100 -0.095200 -0.981800
vn 0.381100 -0.429100 -0.818900
vn 0.418700 0.774100 -0.474900
vn -0.004300 0.306600 -0.951800
vn 0.086200 0.936200 0.340800
vn 0.398500 0.799000 0.450300
vn 0.401300 -0.407600 0.820200
vn -0.000200 0.312200 0.950000
vn 0.111100 0.919100 -0.378100
vn 0.118000 -0.020400 0.992800
usemtl Material
s 1
f 102//1 4//2 5//3
f 100//4 2//5 3//6
f 110//7 8//8 9//9
f 101//10 3//6 4//2
f 109//11 7//12 8//8
f 8//8 15//13 16//14
f 15//13 24//15 25//16
f 38//17 37//18 110//7
f 36//19 35//20 108//21
f 105//22 33//23 32//24
f 30//25 29//26 101//10
f 37//18 36//19 109//11
f 106//27 34//28 33//23
f 44//29 43//30 36//19
f 52//31 51//32 43//30
f 115//33 103//34 5//3
f 114//35 1//36 2//5
f 104//37 32//24 31//38
f 70//39 67//40 56//41
f 57//42 55//43 65//44
f 59//45 71//46 72//47
f 60//48 72//47 73//49
f 73//49 70//39 58//50
f 57//42 68//51 71//46
f 67//40 66//52 63//53
f 63//53 66//52 65//44
f 67//40 70//39 69//54
f 66//52 69//54 68//51
f 70//39 73//49 72//47
f 68//51 69//54 72//47
f 21//55 62//56 65//44
f 60//48 61//57 58//50
f 56//41 55//43 57//42
f 113//58 79//59 78//60
f 89//61 96//62 95//63
f 113//58 112//64 121//65
f 105//22 104//37 117//66
f 106//27 105//22 118//67
f 119//68 118//67 127//69
f 118//67 117//66 131//70
f 79//59 113//58 99//71
f 122//72 116//73 99//71
f 130//74 123//75 116//73
f 144//76 142//77 153//78
f 154//79 151//80 141//81
f 158//82 157//83 145//84
f 146//85 147//86 159//87
f 147//86 144//76 156//88
f 157//83 154//79 143//89
f 149//90 152//91 153//78
f 151//80 152//91 149//90
f 152//91 155//92 156//88
f 151//80 154//79 155//92
f 156//88 155//92 158//82
f 154//79 157//83 158//82
f 151//80 148//93 92//94
f 92//94 148//93 149//90
f 147//86 146//85 144//76
f 142//77 144//76 143//89
f 122//72 121//65 17//95
f 4//2 11//96 126//97
f 108//21 120//98 7//12
f 107//99 106//27 119//68
f 112//64 111//100 9//9
f 107//99 6//101 120//98
f 12//102 126//97 21//103
f 2//5 124//104 125//105
f 120//98 14//106 129//107
f 6//101 119//68 128//108
f 3//6 125//105 11//96
f 121//65 9//9 16//14
f 7//12 129//107 15//13
f 6//101 13//109 14//106
f 125//105 20//110 133//111
f 17//95 16//14 25//16
f 129//107 137//112 24//15
f 13//109 23//113 136//114
f 128//108 127//69 22//115
f 11//96 133//111 21//103
f 130//74 17//95 138//116
f 124//104 19//117 20//110
f 14//106 136//114 137//112
f 13//109 128//108 135//118
f 127//69 131//70 140//119
f 79//59 45//120 89//61
f 41//121 40//122 30//25
f 76//123 30//25 102//1
f 29//26 75//124 100//4
f 107//99 77//125 34//28
f 112//64 78//60 38//17
f 35//20 77//125 107//99
f 83//126 93//127 92//128
f 82//129 81//130 75//124
f 88//131 44//29 37//18
f 39//132 80//133 74//134
f 43//30 87//135 35//20
f 77//125 86//136 42//137
f 31//38 83//126 41//121
f 40//122 82//129 29//26
f 78//60 89//61 88//131
f 81//130 39//132 28//138
f 87//135 86//136 77//125
f 34//28 42//137 85//139
f 47//140 91//141 82//129
f 50//142 94//143 86//136
f 42//137 49//144 48//145
f 26//146 27//147 130//74
f 92//128 47//140 40//122
f 45//120 53//148 96//62
f 91//141 46//149 81//130
f 95//63 52//31 44//29
f 51//32 50//142 87//135
f 86//136 94//143 49//144
f 99//71 116//73 1//36
f 104//37 115//33 10//150
f 116//73 123//75 18//151
f 10//150 5//3 126//97
f 1//36 18//151 124//104
f 117//66 10//150 12//102
f 21//103 25//16 24//15
f 18//151 139//152 19//117
f 131//70 12//102 134//153
f 123//75 132//154 139//152
f 28//138 74//134 99//71
f 115//33 31//38 76//123
f 75//124 28//138 114//35
f 33//23 85//139 84//155
f 32//24 84//155 83//126
f 92//128 93//156 52//31
f 46//149 98//157 39//132
f 84//155 54//158 93//127
f 98//157 90//159 80//133
f 85//139 48//145 54//158
f 45//120 79//59 74//134
f 80//133 90//159 97//160
f 67//40 64//161 140//162
f 64//161 63//53 134//163
f 21//55 134//163 63//53
f 140//162 134//164 56//41
f 54//165 150//166 153//78
f 54//165 93//167 149//90
f 93//168 54//165 142//77
f 103//34 102//1 5//3
f 101//10 100//4 3//6
f 111//100 110//7 9//9
f 102//1 101//10 4//2
f 110//7 109//11 8//8
f 9//9 8//8 16//14
f 16//14 15//13 25//16
f 111//100 38//17 110//7
f 109//11 36//19 108//21
f 104//37 105//22 32//24
f 102//1 30//25 101//10
f 110//7 37//18 109//11
f 105//22 106//27 33//23
f 37//18 44//29 36//19
f 44//29 52//31 43//30
f 10//150 115//33 5//3
f 100//4 114//35 2//5
f 115//33 104//37 31//38
f 58//50 70//39 56//41
f 68//51 57//42 65//44
f 60//48 59//45 72//47
f 61//57 60//48 73//49
f 61//57 73//49 58//50
f 59//45 57//42 71//46
f 64//161 67//40 63//53
f 62//56 63//53 65//44
f 66//52 67//40 69//54
f 65//44 66//52 68//51
f 69//54 70//39 72//47
f 71//46 68//51 72//47
f 55//43 21//55 65//44
f 57//42 59//45 60//48
f 58//50 56//41 57//42
f 60//48 58//50 57//42
f 112//64 113//58 78//60
f 88//131 89//61 95//63
f 122//72 113//58 121//65
f 118//67 105//22 117//66
f 119//68 106//27 118//67
f 128//108 119//68 127//69
f 127//69 118//67 131//70
f 74//134 79//59 99//71
f 113//58 122//72 99//71
f 122//72 130//74 116//73
f 156//88 144//76 153//78
f 143//89 154//79 141//81
f 146//85 158//82 145//84
f 158//82 146//85 159//87
f 159//87 147//86 156//88
f 145//84 157//83 143//89
f 150//166 149//90 153//78
f 148//93 151//80 149//90
f 153//78 152//91 156//88
f 152//91 151//80 155//92
f 159//87 156//88 158//82
f 155//92 154//79 158//82
f 141//81 151//80 92//94
f 93//167 92//94 149//90
f 146//85 145//84 143//89
f 141//81 142//77 143//89
f 130//74 122//72 17//95
f 146//85 143//89 144//76
f 5//3 4//2 126//97
f 109//11 108//21 7//12
f 6//101 107//99 119//68
f 121//65 112//64 9//9
f 108//21 107//99 120//98
f 134//153 12//102 21//103
f 3//6 2//5 125//105
f 7//12 120//98 129//107
f 13//109 6//101 128//108
f 4//2 3//6 11//96
f 17//95 121//65 16//14
f 8//8 7//12 15//13
f 120//98 6//101 14//106
f 11//96 125//105 133//111
f 138//116 17//95 25//16
f 15//13 129//107 24//15
f 14//106 13//109 136//114
f 135//118 128//108 22//115
f 126//97 11//96 21//103
f 26//146 130//74 138//116
f 125//105 124//104 20//110
f 129//107 14//106 137//112
f 23//113 13//109 135//118
f 22//115 127//69 140//119
f 78//60 79//59 89//61
f 76//123 41//121 30//25
f 103//34 76//123 102//1
f 101//10 29//26 100//4
f 106//27 107//99 34//28
f 111//100 112//64 38//17
f 108//21 35//20 107//99
f 41//121 83//126 92//128
f 29//26 82//129 75//124
f 38//17 88//131 37//18
f 28//138 39//132 74//134
f 36//19 43//30 35//20
f 34//28 77//125 42//137
f 76//123 31//38 41//121
f 30//25 40//122 29//26
f 38//17 78//60 88//131
f 75//124 81//130 28//138
f 35//20 87//135 77//125
f 33//23 34//28 85//139
f 40//122 47//140 82//129
f 87//135 50//142 86//136
f 85//139 42//137 48//145
f 27//147 132//154 123//75
f 41//121 92//128 40//122
f 89//61 45//120 96//62
f 27//147 123//75 130//74
f 82//129 91//141 81//130
f 88//131 95//63 44//29
f 43//30 51//32 87//135
f 42//137 86//136 49//144
f 114//35 99//71 1//36
f 117//66 104//37 10//150
f 1//36 116//73 18//151
f 12//102 10//150 126//97
f 2//5 1//36 124//104
f 131//70 117//66 12//102
f 132//154 27//147 26//146
f 22//115 136//114 23//113
f 136//114 140//119 137//112
f 135//118 22//115 23//113
f 140//119 136//114 22//115
f 20//110 25//16 133//111
f 132//154 26//146 139//152
f 138//116 19//117 26//146
f 140//119 131//70 134//153
f 134//169 24//15 137//112
f 19//117 138//116 20//110
f 26//146 19//117 139//152
f 140//119 134//169 137//112
f 138//116 25//16 20//110
f 134//169 21//103 24//15
f 25//16 21//103 133//111
f 124//104 18//151 19//117
f 18//151 123//75 139//152
f 114//35 28//138 99//71
f 103//34 115//33 76//123
f 100//4 75//124 114//35
f 32//24 33//23 84//155
f 31//38 32//24 83//126
f 91//141 96//62 46//149
f 48//145 49//144 94//143
f 95//63 96//62 91//141
f 50//142 48//145 94//143
f 52//31 93//156 51//32
f 83//126 84//155 93//127
f 53//148 97//160 90//159
f 47//140 92//128 95//63
f 96//62 98//157 46//149
f 50//142 54//158 48//145
f 90//159 98//157 53//148
f 92//128 52//31 95//63
f 93//156 54//158 51//32
f 47//140 95//63 91//141
f 81//130 46//149 39//132
f 98//157 96//62 53//148
f 54//158 50//142 51//32
f 39//132 98//157 80//133
f 84//155 85//139 54//158
f 80//133 45//120 74//134
f 97//160 53//148 45//120
f 56//41 67//40 140//162
f 97//160 45//120 80//133
f 140//162 64//161 134//163
f 62//56 21//55 63//53
f 134//164 21//55 55//43
f 142//77 54//165 153//78
f 150//166 54//165 149//90
f 134//164 55//43 56//41
f 141//81 92//94 93//168
f 93//168 142//77 141//81
